<?xml version='1.0' encoding='iso-8859-1'?>
<svg version="1.1" xmlns="http://www.w3.org/2000/svg" viewBox="0 0 298 298" xmlns:xlink="http://www.w3.org/1999/xlink" enable-background="new 0 0 298 298">
  <g>
    <path d="M298,141h-34.116c-4.122-59.601-53.921-106.834-114.551-106.834S38.904,81.399,34.782,141H0v16h34.782   c4.122,59.601,53.921,106.834,114.551,106.834S259.762,216.601,263.884,157H298V141z M248.167,149   c0,54.497-44.337,98.834-98.834,98.834S50.499,203.497,50.499,149s44.337-98.834,98.834-98.834S248.167,94.503,248.167,149z"/>
    <path d="m116.67,136.893c1.344-3.993 3.25-7.524 5.713-10.59 2.459-3.065 5.434-5.48 8.918-7.246 3.482-1.764 7.314-2.647 11.494-2.647 5.297,0 10.195,1.303 14.701,3.902 4.506,2.602 8.014,6.363 10.521,11.286l14.352-10.59c-3.344-6.595-8.338-11.844-14.979-15.746-6.643-3.901-14.609-5.853-23.898-5.853-6.875,0-13.236,1.324-19.09,3.972-5.852,2.647-10.938,6.225-15.258,10.729-4.32,4.507-7.711,9.754-10.172,15.746-2.463,5.991-3.693,12.38-3.693,19.159 0,7.154 1.231,13.819 3.693,19.996 2.461,6.179 5.805,11.544 10.033,16.094 4.225,4.553 9.195,8.13 14.908,10.73 5.713,2.601 11.406,3.901 17.91,3.901 10.496,0 20.176-3.947 27.176-11.844v11.108h16v-51h-35v14h19v7.221c-7,9.012-15.938,13.517-25.504,13.517-4.18,0-7.853-0.858-11.427-2.578-3.578-1.718-6.562-4.063-9.162-7.037-2.602-2.972-4.595-6.48-6.08-10.521-1.488-4.041-2.204-8.382-2.204-13.028-1.42109e-14-4.46 0.698-8.686 2.048-12.681z"/>
  </g>
</svg>
