<?xml version='1.0' encoding='iso-8859-1'?>
<svg version="1.1" xmlns="http://www.w3.org/2000/svg" viewBox="0 0 297 297" xmlns:xlink="http://www.w3.org/1999/xlink" enable-background="new 0 0 297 297">
  <path d="m263.188,155.252c-1.557-6.873-5.111-13.28-10.383-18.563-6.957-6.954-16.786-10.942-26.967-10.942-9.39,0-18.6,3.616-25.511,9.968-6.88-6.298-15.984-9.962-25.501-9.962-9.528,0-18.645,3.67-25.527,9.978-6.883-6.308-15.997-9.978-25.525-9.978-9.805,0-19.065,3.817-25.977,10.386-6.956-6.611-16.362-10.386-25.959-10.386-9.953,0-19.648,3.986-26.605,10.942-5.129,5.138-8.576,11.549-10.065,18.557h-35.168v16h50.313l.021-8.001c0-5.816 2.21-11.234 6.218-15.249 3.974-3.973 9.545-6.252 15.287-6.252 5.698,0 11.281,2.313 15.324,6.358 1.38,1.378 2.592,3.001 3.602,4.836l14.009,.004c3.829-6.922 11.11-11.246 19.001-11.246 7.719,0 14.693,3.551 18.656,10.551h13.738c3.963-7 10.938-10.551 18.658-10.551 7.722,0 14.698,4.024 18.662,10.678l13.758-.02c0.944-1.597 2.044-3.026 3.271-4.252 4.04-4.042 9.625-6.36 15.321-6.36 5.882,0 11.734,2.34 15.648,6.252 4.254,4.262 6.597,9.679 6.597,15.253l-.02,8h48.936v-16h-33.812z"/>
</svg>
