<?xml version='1.0' encoding='iso-8859-1'?>
<svg version="1.1" xmlns="http://www.w3.org/2000/svg" viewBox="0 0 298 298" xmlns:xlink="http://www.w3.org/1999/xlink" enable-background="new 0 0 298 298">
  <g>
    <path d="M298,141h-34.116c-4.122-59.601-53.921-106.834-114.551-106.834S38.904,81.399,34.782,141H0v16h34.782   c4.122,59.601,53.921,106.834,114.551,106.834S259.762,216.601,263.884,157H298V141z M248.167,149   c0,24.375-8.874,46.713-23.556,63.964L160.647,149l63.964-63.964C239.293,102.287,248.167,124.625,248.167,149z M50.499,149   c0-24.375,8.874-46.713,23.556-63.964L138.018,149l-63.964,63.964C59.373,195.713,50.499,173.375,50.499,149z M149.333,50.166   c24.375,0,46.713,8.874,63.964,23.556l-63.964,63.964L85.369,73.722C102.62,59.04,124.958,50.166,149.333,50.166z M149.333,160.314   l63.964,63.964c-17.251,14.682-39.589,23.556-63.964,23.556s-46.713-8.874-63.964-23.556L149.333,160.314z"/>
  </g>
</svg>
