<?xml version='1.0' encoding='iso-8859-1'?>
<svg version="1.1" xmlns="http://www.w3.org/2000/svg" viewBox="0 0 297 297" xmlns:xlink="http://www.w3.org/1999/xlink" enable-background="new 0 0 297 297">
  <g>
    <path d="m297,140.5h-35.016c-3.323-9.592-12.442-16.5-23.151-16.5-13.51,0-24.5,10.99-24.5,24.5s10.99,24.5 24.5,24.5c10.709,0 19.828-6.908 23.151-16.5h35.016v-16zm-49.667,8c0,4.686-3.813,8.5-8.5,8.5-4.686,0-8.5-3.814-8.5-8.5s3.814-8.5 8.5-8.5c4.687,0 8.5,3.814 8.5,8.5z"/>
    <path d="m57.834,124c-10.709,0-19.828,6.908-23.151,16.5h-34.683v16h34.683c3.323,9.592 12.442,16.5 23.151,16.5 13.51,0 24.5-10.99 24.5-24.5s-10.99-24.5-24.5-24.5zm0,33c-4.687,0-8.5-3.814-8.5-8.5s3.813-8.5 8.5-8.5c4.686,0 8.5,3.814 8.5,8.5s-3.814,8.5-8.5,8.5z"/>
    <path d="m169.899,127.427c-14.557,0-21.867,8.862-27.741,15.982-5.51,6.679-8.697,10.164-15.398,10.164-6.702,0-9.89-3.485-15.399-10.164l-12.342,10.182c5.874,7.121 13.185,15.982 27.741,15.982 14.556,0 21.866-8.861 27.74-15.982 5.51-6.679 8.697-10.164 15.399-10.164 6.701,0 9.888,3.485 15.398,10.163l.009,.011 12.333-10.192c-5.874-7.121-13.184-15.982-27.74-15.982z"/>
  </g>
</svg>
