<?xml version='1.0' encoding='iso-8859-1'?>
<svg version="1.1" xmlns="http://www.w3.org/2000/svg" viewBox="0 0 298 298" xmlns:xlink="http://www.w3.org/1999/xlink" enable-background="new 0 0 298 298">
  <g>
    <path d="m298,141h-59.517c-3.323-9.592-12.442-16.5-23.151-16.5s-19.828,6.908-23.151,16.5h-85.695c-3.323-9.592-12.442-16.5-23.151-16.5s-19.828,6.908-23.151,16.5h-60.184v16h60.183c3.323,9.592 12.442,16.5 23.151,16.5s19.828-6.908 23.151-16.5h85.695c3.323,9.592 12.442,16.5 23.151,16.5s19.828-6.908 23.151-16.5h59.518v-16zm-74.168,8c0,4.686-3.814,8.5-8.5,8.5-4.687,0-8.5-3.814-8.5-8.5s3.813-8.5 8.5-8.5c4.686,0 8.5,3.814 8.5,8.5zm-131.998,0c0,4.686-3.814,8.5-8.5,8.5-4.687,0-8.5-3.814-8.5-8.5s3.813-8.5 8.5-8.5c4.686,0 8.5,3.814 8.5,8.5z"/>
  </g>
</svg>
