<?xml version='1.0' encoding='iso-8859-1'?>
<svg version="1.1" xmlns="http://www.w3.org/2000/svg" viewBox="0 0 232 232" xmlns:xlink="http://www.w3.org/1999/xlink" enable-background="new 0 0 232 232">
  <g>
    <path d="m83.329,140.575c0-9.533-3.671-18.651-9.979-25.536 6.307-6.885 9.977-16.002 9.977-25.535 0-9.527-3.67-18.639-9.977-25.522 6.348-6.906 9.96-16.129 9.96-25.547 0-9.986-4.032-19.747-11.068-26.786-7.098-7.086-16.829-11.149-26.701-11.149h-45.541v16h45.541c5.665,0 11.271,2.359 15.386,6.467 3.994,3.994 6.371,9.777 6.371,15.468 0,5.726-2.325,11.321-6.356,15.351-1.264,1.262-2.717,2.368-4.273,3.289l-.069,13.758c6.656,3.964 10.365,10.943 10.365,18.671 0,7.61-3.964,14.763-10.964,18.666v13.738c7,3.904 10.966,11.057 10.966,18.667 0,7.901-4.019,15.188-10.939,19.017l.055,14.008c1.789,0.985 3.441,2.209 4.87,3.641 4.04,4.037 6.367,9.644 6.367,15.381 0,5.754-2.312,11.371-6.346,15.406-4.121,4.113-9.714,6.473-15.355,6.473h-45.619v16h45.618c9.848,0 19.565-4.064 26.669-11.153 7.018-7.019 11.043-16.76 11.043-26.726 0-9.644-3.781-19.081-10.401-26.038 6.577-6.916 10.4-16.189 10.4-26.009z"/>
    <path d="m187.125,16.5h44.875v-16h-44.875c-9.872,0-19.604,4.063-26.708,11.154-7.029,7.033-11.062,16.794-11.062,26.78 0,9.417 3.612,18.64 9.96,25.547-6.307,6.883-9.976,15.995-9.976,25.522 0,9.533 3.67,18.65 9.976,25.535-6.308,6.885-9.979,16.003-9.979,25.536 0,9.82 3.823,19.093 10.4,26.008-6.621,6.96-10.401,16.397-10.401,26.038 0,9.966 4.025,19.707 11.048,26.73 7.099,7.085 16.816,11.148 26.664,11.148h44.953v-16h-44.952c-5.641,0-11.233-2.359-15.349-6.468-4.04-4.04-6.351-9.657-6.351-15.411 0-5.737 2.328-11.344 6.372-15.385 1.426-1.428 3.081-2.651 4.87-3.637l.063-14.008c-6.92-3.829-11.288-11.115-11.288-19.017 0-7.61 3.633-14.763 10.633-18.667v-13.735c-7-3.903-10.631-11.056-10.631-18.666 0-7.728 3.861-14.707 10.516-18.671l.023-13.758c-1.557-0.921-2.964-2.027-4.225-3.287-4.034-4.032-6.337-9.628-6.337-15.354 0-5.691 2.389-11.474 6.376-15.462 4.122-4.113 9.74-6.472 15.405-6.472z"/>
    <rect width="16" x="108" y="0.5" height="231"/>
  </g>
</svg>
