<?xml version='1.0' encoding='iso-8859-1'?>
<svg version="1.1" xmlns="http://www.w3.org/2000/svg" viewBox="0 0 298 298" xmlns:xlink="http://www.w3.org/1999/xlink" enable-background="new 0 0 298 298">
  <g>
    <path d="M298,141.25h-34.101c-4-59.719-53.852-107.084-114.566-107.084S38.767,81.531,34.767,141.25H0v16h34.798   c4.244,59.483,53.99,106.584,114.535,106.584s110.291-47.101,114.535-106.584H298V141.25z M248.167,149   c0,54.497-44.337,98.834-98.834,98.834S50.499,203.497,50.499,149s44.337-98.834,98.834-98.834S248.167,94.503,248.167,149z"/>
    <polygon points="176.086,100.25 149.611,175.077 122.857,100.25 102.652,100.25 141.529,199.25 157.693,199.25 196.291,100.25  "/>
  </g>
</svg>
